<?xml version="1.0" encoding="UTF-8" standalone="no"?>
<!-- Created with Inkscape (http://www.inkscape.org/) -->

<svg
   xmlns:dc="http://purl.org/dc/elements/1.1/"
   xmlns:cc="http://creativecommons.org/ns#"
   xmlns:rdf="http://www.w3.org/1999/02/22-rdf-syntax-ns#"
   xmlns:svg="http://www.w3.org/2000/svg"
   xmlns="http://www.w3.org/2000/svg"
   xmlns:sodipodi="http://sodipodi.sourceforge.net/DTD/sodipodi-0.dtd"
   xmlns:inkscape="http://www.inkscape.org/namespaces/inkscape"
   width="744.09448819"
   height="1052.3622047"
   id="svg2"
   version="1.1"
   inkscape:version="0.48.2 r9819"
   sodipodi:docname="areaweight.svg"
   inkscape:export-filename="/home/tbrown/Desktop/areaweight.png"
   inkscape:export-xdpi="120"
   inkscape:export-ydpi="120">
  <defs
     id="defs4" />
  <sodipodi:namedview
     id="base"
     pagecolor="#ffffff"
     bordercolor="#666666"
     borderopacity="1.0"
     inkscape:pageopacity="0.0"
     inkscape:pageshadow="2"
     inkscape:zoom="0.99349776"
     inkscape:cx="144.90408"
     inkscape:cy="687.86053"
     inkscape:document-units="px"
     inkscape:current-layer="layer1"
     showgrid="false"
     inkscape:window-width="1680"
     inkscape:window-height="1026"
     inkscape:window-x="1680"
     inkscape:window-y="24"
     inkscape:window-maximized="1" />
  <metadata
     id="metadata7">
    <rdf:RDF>
      <cc:Work
         rdf:about="">
        <dc:format>image/svg+xml</dc:format>
        <dc:type
           rdf:resource="http://purl.org/dc/dcmitype/StillImage" />
        <dc:title />
      </cc:Work>
    </rdf:RDF>
  </metadata>
  <g
     inkscape:label="Layer 1"
     inkscape:groupmode="layer"
     id="layer1">
    <path
       style="color:#000000;fill:#fce94f;stroke:#a40000;stroke-width:1;stroke-linecap:butt;stroke-linejoin:miter;stroke-miterlimit:4;stroke-opacity:1;stroke-dasharray:none;stroke-dashoffset:0;marker:none;visibility:visible;display:inline;overflow:visible;enable-background:accumulate"
       d="M 398.5625 429.25 C 384.44487 420.93655 369.40625 412.1875 369.40625 412.1875 L 280.8125 411.1875 L 146.96875 420.25 C 146.96875 420.25 143.85932 414.91224 139.0625 406.78125 C 134.26568 398.65026 127.76334 387.72865 120.90625 376.59375 C 114.04916 365.45885 106.83706 354.10547 100.65625 345.09375 C 97.565843 340.58789 94.751987 336.66999 92.34375 333.65625 C 91.139632 332.14938 90.031938 330.85742 89.0625 329.84375 C 88.093062 328.83008 87.254499 328.09661 86.5625 327.65625 C 85.8705 327.21589 84.854552 326.85546 83.53125 326.59375 C 82.207948 326.33204 80.583414 326.16571 78.71875 326.0625 C 74.989423 325.85608 70.261383 325.94332 64.90625 326.25 C 59.551117 326.55668 53.573916 327.09142 47.3125 327.75 C 41.051084 328.40858 34.510678 329.18198 28.0625 330.03125 C 15.166145 331.7298 2.6075167 333.66216 -6.71875 335.15625 C -16.045017 336.65034 -22.15625 337.71875 -22.15625 337.71875 L -69.90625 385.46875 L -10.0625 465.53125 C -10.0625 465.53125 126.82264 538.00654 134.875 537 C 142.92736 535.99345 278.80955 560.15625 288.875 560.15625 C 298.94045 560.15625 307 524.9375 307 524.9375 L 350.28125 462.53125 L 397.59375 432.34375 L 398.5625 429.25 z "
       id="path3082" />
    <path
       style="color:#000000;fill:#e9b96e;stroke:#a40000;stroke-width:1;stroke-linecap:butt;stroke-linejoin:miter;stroke-miterlimit:4;stroke-opacity:1;stroke-dasharray:none;stroke-dashoffset:0;marker:none;visibility:visible;display:inline;overflow:visible;enable-background:accumulate"
       d="M 115.75 128.34375 L -75.5 188.75 L -93.59375 353.8125 L -69.90625 385.46875 L -22.15625 337.71875 C -22.15625 337.71875 -16.045017 336.65034 -6.71875 335.15625 C 2.6075167 333.66216 15.166145 331.7298 28.0625 330.03125 C 34.510678 329.18198 41.051084 328.40858 47.3125 327.75 C 53.573916 327.09142 59.551117 326.55668 64.90625 326.25 C 70.261383 325.94332 74.989423 325.85608 78.71875 326.0625 C 80.583414 326.16571 82.207948 326.33204 83.53125 326.59375 C 84.854552 326.85546 85.8705 327.21589 86.5625 327.65625 C 87.254499 328.09661 88.093062 328.83008 89.0625 329.84375 C 90.031938 330.85742 91.139632 332.14938 92.34375 333.65625 C 94.751987 336.66999 97.565843 340.58789 100.65625 345.09375 C 106.83706 354.10547 114.04916 365.45885 120.90625 376.59375 C 127.76334 387.72865 134.26568 398.65026 139.0625 406.78125 C 143.85932 414.91224 146.96875 420.25 146.96875 420.25 L 280.8125 411.1875 L 369.40625 412.1875 C 369.40625 412.1875 384.44487 420.93655 398.5625 429.25 L 408.5625 398 L 383.5 368.90625 L 368.40625 274.3125 L 266.71875 218.9375 L 237.6875 158.375 C 185.96275 145.56369 115.75 128.34375 115.75 128.34375 z "
       id="path3077" />
    <path
       style="color:#000000;fill:#fcaf3e;stroke:#a40000;stroke-width:1;stroke-linecap:butt;stroke-linejoin:miter;stroke-miterlimit:4;stroke-opacity:1;stroke-dasharray:none;stroke-dashoffset:0;marker:none;visibility:visible;display:inline;overflow:visible;enable-background:accumulate"
       d="M 237.6875 158.375 L 266.71875 218.9375 L 368.40625 274.3125 L 383.5 368.90625 L 408.5625 398 L 420.75 359.84375 L 461 305.5 L 514.34375 269.28125 L 487.15625 213.90625 L 457.96875 142.4375 C 457.96875 142.4375 340.20206 133.39316 333.15625 135.40625 C 326.11043 137.41934 296.94552 173.63809 290.90625 171.625 C 289.11761 171.02879 259.45305 163.76594 237.6875 158.375 z "
       id="path3069" />
    <path
       style="color:#000000;fill:none;stroke:#204a87;stroke-width:2.4000001;stroke-linecap:butt;stroke-linejoin:miter;stroke-miterlimit:4;stroke-opacity:1;stroke-dasharray:none;stroke-dashoffset:0;marker:none;visibility:visible;display:inline;overflow:visible;enable-background:accumulate"
       d="m 439.86008,382.00335 -20.1309,59.38614 c 0,0 0,37.24216 -16.10472,37.24216 -16.10471,0 -85.5563,-31.20289 -90.58903,-32.20944 -5.03272,-1.00654 -88.57594,-46.30106 -88.57594,-46.30106 L 149.97517,389.04916 70.458136,383.00989 11.071993,329.66302 -7.0458136,239.07399 96.628301,216.93 l 140.916269,34.22252 95.62176,58.3796 61.39923,43.28143 z"
       id="path3084"
       inkscape:connector-curvature="0"
       sodipodi:nodetypes="ccsscccccccccc" />
    <text
       sodipodi:linespacing="125%"
       id="text3877"
       y="329.66302"
       x="182.18462"
       style="font-size:22px;font-style:normal;font-variant:normal;font-weight:bold;font-stretch:normal;text-indent:0;text-align:start;text-decoration:none;line-height:125%;letter-spacing:0px;word-spacing:0px;text-transform:none;direction:ltr;block-progression:tb;writing-mode:lr-tb;text-anchor:start;baseline-shift:baseline;opacity:0.83999999;color:#000000;fill:#2e3436;fill-opacity:1;fill-rule:nonzero;stroke:none;stroke-width:2.4000001;marker:none;visibility:visible;display:inline;overflow:visible;enable-background:accumulate;font-family:Arial;-inkscape-font-specification:Arial Bold"
       xml:space="preserve"><tspan
         y="329.66302"
         x="182.18462"
         id="tspan3879"
         sodipodi:role="line">2</tspan></text>
    <text
       sodipodi:linespacing="125%"
       id="text3881"
       y="234.04128"
       x="393.55902"
       style="font-size:22px;font-style:normal;font-variant:normal;font-weight:bold;font-stretch:normal;text-indent:0;text-align:start;text-decoration:none;line-height:125%;letter-spacing:0px;word-spacing:0px;text-transform:none;direction:ltr;block-progression:tb;writing-mode:lr-tb;text-anchor:start;baseline-shift:baseline;opacity:0.83999999;color:#000000;fill:#2e3436;fill-opacity:1;fill-rule:nonzero;stroke:none;stroke-width:2.4000001;marker:none;visibility:visible;display:inline;overflow:visible;enable-background:accumulate;font-family:Arial;-inkscape-font-specification:Arial Bold"
       xml:space="preserve"><tspan
         y="234.04128"
         x="393.55902"
         id="tspan3883"
         sodipodi:role="line">1</tspan></text>
    <text
       xml:space="preserve"
       style="font-size:22px;font-style:normal;font-variant:normal;font-weight:bold;font-stretch:normal;text-indent:0;text-align:start;text-decoration:none;line-height:125%;letter-spacing:0px;word-spacing:0px;text-transform:none;direction:ltr;block-progression:tb;writing-mode:lr-tb;text-anchor:start;baseline-shift:baseline;opacity:0.83999999;color:#000000;fill:#2e3436;fill-opacity:1;fill-rule:nonzero;stroke:none;stroke-width:2.4000001;marker:none;visibility:visible;display:inline;overflow:visible;enable-background:accumulate;font-family:Arial;-inkscape-font-specification:Arial Bold"
       x="115.75266"
       y="480.64474"
       id="text3873"
       sodipodi:linespacing="125%"><tspan
         sodipodi:role="line"
         id="tspan3875"
         x="115.75266"
         y="480.64474">3</tspan></text>
    <text
       xml:space="preserve"
       style="font-size:22px;font-style:normal;font-variant:normal;font-weight:bold;font-stretch:normal;text-indent:0;text-align:start;text-decoration:none;line-height:125%;letter-spacing:0px;word-spacing:0px;text-transform:none;direction:ltr;block-progression:tb;writing-mode:lr-tb;text-anchor:start;baseline-shift:baseline;opacity:0.83999999;color:#000000;fill:#2e3436;fill-opacity:1;fill-rule:nonzero;stroke:none;stroke-width:2.4000001;marker:none;visibility:visible;display:inline;overflow:visible;enable-background:accumulate;font-family:Arial;-inkscape-font-specification:Arial Bold"
       x="70.458138"
       y="359.85938"
       id="text3885"
       sodipodi:linespacing="125%"><tspan
         sodipodi:role="line"
         id="tspan3887"
         x="70.458138"
         y="359.85938">A</tspan></text>
    <text
       xml:space="preserve"
       style="font-size:22px;font-style:normal;font-variant:normal;font-weight:bold;font-stretch:normal;text-indent:0;text-align:start;text-decoration:none;line-height:125%;letter-spacing:0px;word-spacing:0px;text-transform:none;direction:ltr;block-progression:tb;writing-mode:lr-tb;text-anchor:start;baseline-shift:baseline;opacity:0.83999999;color:#000000;fill:#2e3436;fill-opacity:1;fill-rule:nonzero;stroke:none;stroke-width:2.4000001;marker:none;visibility:visible;display:inline;overflow:visible;enable-background:accumulate;font-family:Arial;-inkscape-font-specification:Arial Bold"
       x="333.14014"
       y="438.34369"
       id="text3889"
       sodipodi:linespacing="125%"><tspan
         sodipodi:role="line"
         id="tspan3891"
         x="333.14014"
         y="438.34369">B</tspan></text>
    <text
       xml:space="preserve"
       style="font-size:22px;font-style:normal;font-variant:normal;font-weight:bold;font-stretch:normal;text-indent:0;text-align:start;text-decoration:none;line-height:125%;letter-spacing:0px;word-spacing:0px;text-transform:none;direction:ltr;block-progression:tb;writing-mode:lr-tb;text-anchor:start;baseline-shift:baseline;opacity:0.83999999;color:#000000;fill:#2e3436;fill-opacity:1;fill-rule:nonzero;stroke:none;stroke-width:2.4000001;marker:none;visibility:visible;display:inline;overflow:visible;enable-background:accumulate;font-family:Arial;-inkscape-font-specification:Arial Bold"
       x="264.77365"
       y="354.80045"
       id="text3893"
       sodipodi:linespacing="125%"><tspan
         sodipodi:role="line"
         id="tspan3895"
         x="264.77365"
         y="354.80045">C</tspan></text>
    <text
       xml:space="preserve"
       style="font-size:22px;font-style:normal;font-variant:normal;font-weight:bold;font-stretch:normal;text-indent:0;text-align:start;text-decoration:none;line-height:125%;letter-spacing:0px;word-spacing:0px;text-transform:none;direction:ltr;block-progression:tb;writing-mode:lr-tb;text-anchor:start;baseline-shift:baseline;opacity:0.83999999;color:#000000;fill:#2e3436;fill-opacity:1;fill-rule:nonzero;stroke:none;stroke-width:2.4000001;marker:none;visibility:visible;display:inline;overflow:visible;enable-background:accumulate;font-family:Arial;-inkscape-font-specification:Arial Bold"
       x="394.55246"
       y="379.96408"
       id="text3897"
       sodipodi:linespacing="125%"><tspan
         sodipodi:role="line"
         id="tspan3899"
         x="394.55246"
         y="379.96408">D</tspan></text>
    <text
       xml:space="preserve"
       style="font-size:22px;font-style:normal;font-variant:normal;font-weight:bold;font-stretch:normal;text-indent:0;text-align:start;text-decoration:none;line-height:125%;letter-spacing:0px;word-spacing:0px;text-transform:none;direction:ltr;block-progression:tb;writing-mode:lr-tb;text-anchor:start;baseline-shift:baseline;opacity:0.83999999;color:#000000;fill:#2e3436;fill-opacity:1;fill-rule:nonzero;stroke:none;stroke-width:2.4000001;marker:none;visibility:visible;display:inline;overflow:visible;enable-background:accumulate;font-family:Arial;-inkscape-font-specification:Arial Bold"
       x="435.55902"
       y="434.04126"
       id="text3069"
       sodipodi:linespacing="125%"><tspan
         sodipodi:role="line"
         id="tspan3071"
         x="435.55902"
         y="434.04126">100</tspan></text>
  </g>
</svg>
